<svg id="visual" viewBox="0 0 540 960" width="540" height="960" xmlns="http://www.w3.org/2000/svg" xmlns:xlink="http://www.w3.org/1999/xlink" version="1.1"><path d="M0 68L12.8 71.2C25.7 74.3 51.3 80.7 77 77.5C102.7 74.3 128.3 61.7 154 63.3C179.7 65 205.3 81 231.2 82.7C257 84.3 283 71.7 308.8 70C334.7 68.3 360.3 77.7 386 82.3C411.7 87 437.3 87 463 82.3C488.7 77.7 514.3 68.3 527.2 63.7L540 59L540 0L527.2 0C514.3 0 488.7 0 463 0C437.3 0 411.7 0 386 0C360.3 0 334.7 0 308.8 0C283 0 257 0 231.2 0C205.3 0 179.7 0 154 0C128.3 0 102.7 0 77 0C51.3 0 25.7 0 12.8 0L0 0Z" fill="#ffb9e5"></path><path d="M0 164L12.8 175.2C25.7 186.3 51.3 208.7 77 215.2C102.7 221.7 128.3 212.3 154 206C179.7 199.7 205.3 196.3 231.2 194.7C257 193 283 193 308.8 202.7C334.7 212.3 360.3 231.7 386 236.5C411.7 241.3 437.3 231.7 463 231.7C488.7 231.7 514.3 241.3 527.2 246.2L540 251L540 57L527.2 61.7C514.3 66.3 488.7 75.7 463 80.3C437.3 85 411.7 85 386 80.3C360.3 75.7 334.7 66.3 308.8 68C283 69.7 257 82.3 231.2 80.7C205.3 79 179.7 63 154 61.3C128.3 59.7 102.7 72.3 77 75.5C51.3 78.7 25.7 72.3 12.8 69.2L0 66Z" fill="#ffb0e1"></path><path d="M0 212L12.8 228C25.7 244 51.3 276 77 285.7C102.7 295.3 128.3 282.7 154 274.7C179.7 266.7 205.3 263.3 231.2 261.7C257 260 283 260 308.8 266.5C334.7 273 360.3 286 386 287.7C411.7 289.3 437.3 279.7 463 284.3C488.7 289 514.3 308 527.2 317.5L540 327L540 249L527.2 244.2C514.3 239.3 488.7 229.7 463 229.7C437.3 229.7 411.7 239.3 386 234.5C360.3 229.7 334.7 210.3 308.8 200.7C283 191 257 191 231.2 192.7C205.3 194.3 179.7 197.7 154 204C128.3 210.3 102.7 219.7 77 213.2C51.3 206.7 25.7 184.3 12.8 173.2L0 162Z" fill="#ffa6de"></path><path d="M0 289L12.8 305C25.7 321 51.3 353 77 362.7C102.7 372.3 128.3 359.7 154 350C179.7 340.3 205.3 333.7 231.2 330.3C257 327 283 327 308.8 330.3C334.7 333.7 360.3 340.3 386 342C411.7 343.7 437.3 340.3 463 346.7C488.7 353 514.3 369 527.2 377L540 385L540 325L527.2 315.5C514.3 306 488.7 287 463 282.3C437.3 277.7 411.7 287.3 386 285.7C360.3 284 334.7 271 308.8 264.5C283 258 257 258 231.2 259.7C205.3 261.3 179.7 264.7 154 272.7C128.3 280.7 102.7 293.3 77 283.7C51.3 274 25.7 242 12.8 226L0 210Z" fill="#ff9cda"></path><path d="M0 414L12.8 426.8C25.7 439.7 51.3 465.3 77 470.2C102.7 475 128.3 459 154 447.7C179.7 436.3 205.3 429.7 231.2 424.8C257 420 283 417 308.8 426.7C334.7 436.3 360.3 458.7 386 465C411.7 471.3 437.3 461.7 463 458.5C488.7 455.3 514.3 458.7 527.2 460.3L540 462L540 383L527.2 375C514.3 367 488.7 351 463 344.7C437.3 338.3 411.7 341.7 386 340C360.3 338.3 334.7 331.7 308.8 328.3C283 325 257 325 231.2 328.3C205.3 331.7 179.7 338.3 154 348C128.3 357.7 102.7 370.3 77 360.7C51.3 351 25.7 319 12.8 303L0 287Z" fill="#fd92d4"></path><path d="M0 519L12.8 528.7C25.7 538.3 51.3 557.7 77 561C102.7 564.3 128.3 551.7 154 542C179.7 532.3 205.3 525.7 231.2 516C257 506.3 283 493.7 308.8 501.7C334.7 509.7 360.3 538.3 386 549.5C411.7 560.7 437.3 554.3 463 548C488.7 541.7 514.3 535.3 527.2 532.2L540 529L540 460L527.2 458.3C514.3 456.7 488.7 453.3 463 456.5C437.3 459.7 411.7 469.3 386 463C360.3 456.7 334.7 434.3 308.8 424.7C283 415 257 418 231.2 422.8C205.3 427.7 179.7 434.3 154 445.7C128.3 457 102.7 473 77 468.2C51.3 463.3 25.7 437.7 12.8 424.8L0 412Z" fill="#f887cc"></path><path d="M0 711L12.8 722.3C25.7 733.7 51.3 756.3 77 772.3C102.7 788.3 128.3 797.7 154 786.3C179.7 775 205.3 743 231.2 736.7C257 730.3 283 749.7 308.8 761C334.7 772.3 360.3 775.7 386 774C411.7 772.3 437.3 765.7 463 759.2C488.7 752.7 514.3 746.3 527.2 743.2L540 740L540 527L527.2 530.2C514.3 533.3 488.7 539.7 463 546C437.3 552.3 411.7 558.7 386 547.5C360.3 536.3 334.7 507.7 308.8 499.7C283 491.7 257 504.3 231.2 514C205.3 523.7 179.7 530.3 154 540C128.3 549.7 102.7 562.3 77 559C51.3 555.7 25.7 536.3 12.8 526.7L0 517Z" fill="#f37dc3"></path><path d="M0 961L12.8 961C25.7 961 51.3 961 77 961C102.7 961 128.3 961 154 961C179.7 961 205.3 961 231.2 961C257 961 283 961 308.8 961C334.7 961 360.3 961 386 961C411.7 961 437.3 961 463 961C488.7 961 514.3 961 527.2 961L540 961L540 738L527.2 741.2C514.3 744.3 488.7 750.7 463 757.2C437.3 763.7 411.7 770.3 386 772C360.3 773.7 334.7 770.3 308.8 759C283 747.7 257 728.3 231.2 734.7C205.3 741 179.7 773 154 784.3C128.3 795.7 102.7 786.3 77 770.3C51.3 754.3 25.7 731.7 12.8 720.3L0 709Z" fill="#ee72bb"></path></svg>